<?xml version="1.0"?>
<svg xmlns="http://www.w3.org/2000/svg" xmlns:xlink="http://www.w3.org/1999/xlink" version="1.1" id="Capa_1" x="0px" y="0px" viewBox="0 0 512 512" style="enable-background:new 0 0 512 512;" xml:space="preserve" width="512px" height="512px" class=""><g><g>
	<g>
		<path d="M467,122H332V45c0-24.813-20.187-45-45-45H45C20.187,0,0,20.187,0,45v422c0,24.813,20.187,45,45,45h242    c24.813,0,45-20.187,45-45v-83.787L383.213,332H467c24.813,0,45-20.187,45-45V167C512,142.187,491.813,122,467,122z M30,45    c0-8.271,6.729-15,15-15h242c8.271,0,15,6.729,15,15v15H30V45z M302,467c0,8.271-6.729,15-15,15H45c-8.271,0-15-6.729-15-15v-45    h272V467z M302,392H30V90h272v32h-15c-24.813,0-45,20.187-45,45v120c0,24.813,20.187,45,45,45h15C302,338.893,302,385.533,302,392    z M482,287c0,8.271-6.729,15-15,15h-90c-3.978,0-7.793,1.58-10.606,4.393L332,340.787v-23.784V317c0-8.284-6.716-15-15-15h-30    c-8.271,0-15-6.729-15-15V167c0-8.271,6.729-15,15-15h180c8.271,0,15,6.729,15,15V287z" data-original="#000000" class="active-path" data-old_color="#000000" fill="#04458F"/>
	</g>
</g><g>
	<g>
		<path d="M437,182H317c-8.284,0-15,6.716-15,15s6.716,15,15,15h120c8.284,0,15-6.716,15-15S445.284,182,437,182z" data-original="#000000" class="active-path" data-old_color="#000000" fill="#04458F"/>
	</g>
</g><g>
	<g>
		<path d="M377,242h-60c-8.284,0-15,6.716-15,15s6.716,15,15,15h60c8.284,0,15-6.716,15-15S385.284,242,377,242z" data-original="#000000" class="active-path" data-old_color="#000000" fill="#04458F"/>
	</g>
</g></g> </svg>
